<svg viewBox="0 0 40 40" xmlns="http://www.w3.org/2000/svg">
<path d="M19.3287 0.505203C20.1543 1.23904 20.2287 2.50318 19.4948 3.32875L6.45373 18H38C39.1046 18 40 18.8954 40 20C40 21.1046 39.1046 22 38 22H6.45365L19.4948 36.6713C20.2286 37.4969 20.1543 38.761 19.3287 39.4948C18.5031 40.2287 17.239 40.1543 16.5052 39.3288L0.520379 21.3459C0.395516 21.2089 0.292859 21.0582 0.212693 20.8987C0.170291 20.8145 0.134274 20.728 0.1046 20.64C0.0624336 20.5151 0.0322702 20.3847 0.0154816 20.2501C0.00261294 20.1472 -0.00223941 20.0436 0.000865713 19.9403C0.00140858 19.9218 0.00220687 19.9033 0.00326091 19.8848C0.0173059 19.6375 0.0763059 19.4021 0.17222 19.1868C0.257793 18.9942 0.375031 18.8128 0.523461 18.6508L16.5052 0.671294C17.239 -0.154272 18.5032 -0.228633 19.3287 0.505203Z"/>
</svg>
