<svg viewBox="0 0 40 40" xmlns="http://www.w3.org/2000/svg">
<path d="M0.585786 0.585786C1.36683 -0.195262 2.63317 -0.195262 3.41421 0.585786L20 17.1716L36.5858 0.585786C37.3668 -0.195262 38.6332 -0.195262 39.4142 0.585786C40.1953 1.36683 40.1953 2.63317 39.4142 3.41421L22.8284 20L39.4142 36.5858C40.1953 37.3668 40.1953 38.6332 39.4142 39.4142C38.6332 40.1953 37.3668 40.1953 36.5858 39.4142L20 22.8284L3.41421 39.4142C2.63317 40.1953 1.36683 40.1953 0.585786 39.4142C-0.195262 38.6332 -0.195262 37.3668 0.585786 36.5858L17.1716 20L0.585786 3.41421C-0.195262 2.63317 -0.195262 1.36683 0.585786 0.585786Z"/>
</svg>
