<svg viewBox="0 0 40 40" xmlns="http://www.w3.org/2000/svg">
<path fill-rule="evenodd" d="M26 15C26 21.0751 21.0751 26 15 26C8.92487 26 4 21.0751 4 15C4 8.92487 8.92487 4 15 4C21.0751 4 26 8.92487 26 15ZM24.0982 26.9267C21.5746 28.8547 18.4211 30 15 30C6.71573 30 0 23.2843 0 15C0 6.71573 6.71573 0 15 0C23.2843 0 30 6.71573 30 15C30 18.4211 28.8547 21.5746 26.9267 24.0982L39.4142 36.5858C40.1953 37.3668 40.1953 38.6332 39.4142 39.4142C38.6332 40.1953 37.3668 40.1953 36.5858 39.4142L24.0982 26.9267Z"/>
</svg>
